PathFileType  4	(X/Y/Z) C:\Users\antoi\Documents\MyRepositories\mobilecap\ResultsAnalysis
DataRate	CameraRate	NumFrames	NumMarkers	Units	OrigDataRate	OrigDataStartFrame	OrigNumFrames
100.0	100.0	4	51	mm	100.0	1218	1623
Frame#	Time	r_knee			r_shank_antsup			r_ankle			r_calc			r_5meta			r_toe			L_knee			L_shank_antsup			L_ankle			L_calc			L_5meta			L_toe			r_sh2			r_sh3			r_sh4			L_sh2			L_sh3			r_thigh1			r_thigh2			r_thigh3			r_thigh4			r_thigh5			L_thigh1			L_thigh2			L_thigh3			L_thigh4			r.ASIS			r.PSIS			L.ASIS			L.PSIS			C7			R_Shoulder			L_Shoulder			R_Sternum			L_Sternum			R_humerus			R_elbow_med			R_elbow_lat			R_forearm			R_wrist_radius			R_wrist_ulna			L_humerus			L_elbow_med			L_elbow_lat			L_forearm			L_wrist_radius			L_wrist_ulna			R_HJC			L_HJC			R_HJC_reg			L_HJC_reg			
		X1	Y1	Z1	X2	Y2	Z2	X3	Y3	Z3	X4	Y4	Z4	X5	Y5	Z5	X6	Y6	Z6	X7	Y7	Z7	X8	Y8	Z8	X9	Y9	Z9	X10	Y10	Z10	X11	Y11	Z11	X12	Y12	Z12	X13	Y13	Z13	X14	Y14	Z14	X15	Y15	Z15	X16	Y16	Z16	X17	Y17	Z17	X18	Y18	Z18	X19	Y19	Z19	X20	Y20	Z20	X21	Y21	Z21	X22	Y22	Z22	X23	Y23	Z23	X24	Y24	Z24	X25	Y25	Z25	X26	Y26	Z26	X27	Y27	Z27	X28	Y28	Z28	X29	Y29	Z29	X30	Y30	Z30	X31	Y31	Z31	X32	Y32	Z32	X33	Y33	Z33	X34	Y34	Z34	X35	Y35	Z35	X36	Y36	Z36	X37	Y37	Z37	X38	Y38	Z38	X39	Y39	Z39	X40	Y40	Z40	X41	Y41	Z41	X42	Y42	Z42	X43	Y43	Z43	X44	Y44	Z44	X45	Y45	Z45	X46	Y46	Z46	X47	Y47	Z47	X48	Y48	Z48	X49	Y49	Z49	X50	Y50	Z50	X51	Y51	Z51	

1218	12.17000000	-78.40421	459.52453	-379.35348	-72.64311	388.10727	-350.20348	-287.76139	106.11094	-386.43953	-347.30715	53.99637	-434.13135	-167.36689	38.78249	-310.94166	-122.11127	62.86053	-362.33887	-71.28464	459.39293	-892.25977	-70.66779	359.80596	-917.71118	-270.28369	102.12640	-887.03640	-341.14823	55.31047	-850.31467	-131.58584	32.84567	-947.32858	-101.15716	58.86760	-886.01628	-132.44284	291.62688	-350.53113	-135.81466	427.34162	-358.19070	-203.28110	331.87102	-360.70763	-145.77335	407.57002	-913.98476	-203.33312	304.65022	-913.11902	-319.89267	634.92362	-419.35241	-216.76148	606.98107	-406.42720	-215.00320	547.87003	-373.59751	-351.61185	526.50006	-415.69380	-238.95984	501.15832	-391.98868	-317.02259	639.43036	-846.04334	-185.91370	597.44794	-867.80139	-355.95643	526.96497	-852.63391	-223.03299	495.17138	-882.89620	-335.57808	630.44501	-501.44567	-481.43730	748.55545	-589.47364	-316.25122	651.40600	-761.59915	-482.40176	743.86115	-689.65894	-159.31747	1133.29344	-642.17974	-111.19238	1070.00825	-466.66534	-85.30224	1068.62099	-799.91724	-45.14128	1008.19844	-602.23806	-44.24550	1005.40194	-655.66387	-264.71430	868.00892	-354.15042	-343.57945	788.85810	-413.05063	-328.05796	804.86171	-327.10068	-244.66617	664.90014	-310.21674	-185.19926	572.20697	-317.33259	-224.49053	558.86297	-300.84844	-212.33540	863.47212	-917.98987	-305.83756	793.93173	-871.44552	-276.96240	802.53658	-942.89122	-211.35898	637.96771	-964.35070	-161.06338	557.51820	-958.47931	-195.39270	539.87764	-966.49609	-438.82366	590.97707	-520.87735	-419.66690	603.58880	-750.10051	-424.75157	612.47377	-535.46602	-426.41243	604.38960	-707.99801	
1219	12.18000000	-78.64341	459.65733	-379.09502	-72.84192	388.25542	-350.08575	-287.77989	106.08045	-386.43169	-347.29931	53.98735	-434.12231	-167.39039	38.75269	-310.97042	-122.11128	62.88512	-362.29148	-70.18647	460.64901	-894.11865	-70.79823	359.84704	-917.69900	-270.30327	102.16217	-887.07494	-341.22783	55.25027	-850.25434	-131.59421	32.85241	-947.29108	-101.18335	58.85260	-885.92667	-132.45766	291.54458	-350.58597	-136.14856	427.16321	-358.38897	-203.43824	331.92560	-360.65100	-145.32969	408.48025	-915.18306	-203.40799	304.68613	-913.20778	-320.04076	634.90115	-420.02435	-217.17117	607.08811	-406.24396	-215.39361	547.61814	-373.86070	-351.87336	526.56091	-415.77750	-239.29828	501.24315	-391.96487	-317.11464	639.59122	-845.80372	-185.99036	597.58393	-867.73427	-356.08183	527.13231	-852.68568	-223.11821	495.43621	-883.07460	-335.81038	630.29263	-501.65493	-481.58727	748.59774	-589.58585	-316.29171	651.48188	-761.45396	-482.53689	744.02503	-689.54774	-158.93721	1133.08732	-641.96634	-110.90505	1069.67078	-466.56355	-84.96704	1068.28313	-799.66756	-44.91575	1007.84045	-602.04831	-44.00734	1005.07038	-655.39466	-264.79152	867.82695	-354.00320	-343.81713	788.86721	-413.17945	-328.22706	804.78235	-327.12272	-245.41768	664.38709	-310.34206	-186.57065	571.66093	-317.04023	-225.72094	558.30258	-300.94845	-211.86189	863.12495	-917.83335	-305.11098	794.13441	-871.27933	-276.49879	802.13595	-942.58853	-211.55146	637.39064	-964.26169	-161.66657	556.68159	-958.36259	-196.12848	539.11875	-966.28006	-439.09404	590.90374	-521.02802	-419.78299	603.75505	-750.22524	-424.87533	612.47373	-535.65473	-426.51236	604.59059	-707.98509	
1220	12.19000000	-78.88692	459.73896	-379.15212	-73.02720	388.36883	-350.10057	-287.82582	106.05337	-386.42105	-347.30726	53.98895	-434.10646	-167.40856	38.76511	-310.97053	-122.13267	62.89668	-362.27272	-68.24375	462.67949	-897.38851	-70.96939	359.97824	-917.85115	-270.32251	102.16381	-887.12024	-341.28701	55.24648	-850.29536	-131.59871	32.83489	-947.28754	-101.20491	58.81296	-885.85117	-132.48364	291.51270	-350.62574	-136.38792	427.30006	-358.41351	-203.59178	331.94070	-360.68453	-144.48986	410.17346	-917.30292	-203.53209	304.70054	-913.29476	-320.18451	635.06511	-420.35721	-217.44236	607.23852	-406.25739	-215.62421	547.62195	-374.00579	-351.97660	526.20530	-415.95456	-239.58731	501.35804	-391.90504	-317.23894	639.72964	-845.66047	-186.15774	597.64000	-867.76811	-356.20316	527.29173	-852.77426	-223.22829	495.51811	-883.12473	-336.04902	630.37023	-501.70225	-481.73021	748.77469	-589.68615	-316.34551	651.50894	-761.39775	-482.65862	744.20386	-689.42960	-158.65885	1132.96303	-641.90287	-110.65213	1069.43934	-466.49321	-84.63169	1068.01696	-799.57395	-44.74553	1007.55291	-601.92893	-43.82899	1004.90341	-655.27967	-264.88633	867.68055	-353.99348	-344.05483	788.89987	-413.31832	-328.40262	804.80967	-327.20150	-246.21960	664.05826	-310.39058	-188.00961	571.29777	-316.68372	-227.00723	557.82659	-301.08554	-211.40669	862.73805	-917.59552	-304.01167	794.74113	-870.85395	-276.08250	801.84654	-942.35845	-211.87053	636.85969	-964.07830	-162.36009	555.82622	-958.10918	-196.88059	538.41420	-965.91975	-439.34157	591.03101	-521.04351	-419.93128	603.88888	-750.23204	-425.05583	612.63276	-535.70206	-426.65926	604.73824	-707.97077	
1221	12.20000000	-79.13284	459.76173	-379.41123	-73.19976	388.47116	-350.15491	-287.92017	106.03546	-386.43236	-347.34148	53.99047	-434.11265	-167.41987	38.80056	-310.95236	-122.17760	62.88684	-362.27455	-67.37441	463.69846	-899.23089	-71.16592	360.09733	-918.01376	-270.34134	102.11685	-887.11138	-341.28116	55.28650	-850.40137	-131.60841	32.80615	-947.30782	-101.21699	58.79898	-885.86975	-132.58108	291.59690	-350.59666	-136.58959	427.60317	-358.38849	-203.73262	331.94382	-360.77264	-144.22681	411.01416	-918.29357	-203.80447	304.75245	-913.16705	-320.24286	635.34434	-420.18809	-217.72259	607.42257	-406.33896	-215.61259	547.80152	-373.88890	-352.12922	526.05486	-415.96598	-239.78045	501.47365	-391.94572	-317.38634	639.87586	-845.72257	-186.27235	597.72384	-867.87788	-356.34986	527.41345	-852.87573	-223.44506	495.62468	-883.30628	-336.24846	630.64014	-501.49120	-481.84213	749.04578	-589.64574	-316.45712	651.64315	-761.46207	-482.73600	744.38393	-689.40330	-158.42370	1132.92861	-641.96698	-110.40063	1069.31532	-466.45069	-84.28101	1067.83661	-799.59640	-44.59482	1007.35683	-601.87855	-43.69724	1004.82290	-655.23262	-264.97955	867.69011	-354.04065	-344.18213	788.96221	-413.41306	-328.59436	804.95461	-327.31870	-247.05535	663.87087	-310.32942	-189.14624	570.99551	-316.62359	-228.27659	557.53565	-301.15209	-211.01568	862.43694	-917.39166	-303.17685	795.11541	-870.36481	-275.69612	801.65225	-942.24822	-212.24260	636.27294	-963.78586	-163.11456	555.05588	-957.91881	-197.71263	537.71507	-965.47183	-439.51276	591.31480	-520.94172	-420.07093	604.04884	-750.13435	-425.30655	612.91025	-535.54743	-426.85168	604.85191	-707.98699	
